<?xml version="1.0" encoding="UTF-8"?>
<svg version="1.1" xmlns="http://www.w3.org/2000/svg" width="1024" height="1024">
<path d="M0 0 C337.92 0 675.84 0 1024 0 C1024 337.92 1024 675.84 1024 1024 C686.08 1024 348.16 1024 0 1024 C0 686.08 0 348.16 0 0 Z " fill="#000000" transform="translate(0,0)"/>
<path d="M0 0 C1.14507523 -0.00428513 2.29015045 -0.00857025 3.46992493 -0.01298523 C5.87927595 -0.01869447 8.2886442 -0.01925413 10.69799805 -0.01489258 C14.33608242 -0.0117423 17.97334447 -0.03520279 21.61132812 -0.06054688 C37.12215487 -0.10423074 52.11831623 0.17080367 66.55078125 6.55078125 C67.25855713 6.8545166 67.96633301 7.15825195 68.69555664 7.47119141 C74.56264823 10.0759517 79.7160072 13.20618367 84.67578125 17.30078125 C85.51496094 17.97882813 86.35414063 18.656875 87.21875 19.35546875 C101.83331738 31.78116749 111.04192696 49.08215729 113.09179688 68.17578125 C113.28093346 72.10185854 113.33345467 75.99536058 113.30078125 79.92578125 C113.29780029 80.61744385 113.29481934 81.30910645 113.29174805 82.02172852 C113.12581658 103.57548287 106.38436436 122.15801988 94.32421875 139.890625 C93.43816556 141.20692852 92.55279175 142.52368954 91.66796875 143.84082031 C91.18956543 144.5521814 90.71116211 145.26354248 90.21826172 145.99645996 C87.33419739 150.30498182 84.48738151 154.63808795 81.63671875 158.96875 C81.02054688 159.9041864 80.404375 160.8396228 79.76953125 161.80340576 C77.86290738 164.69811825 75.9567859 167.59316101 74.05078125 170.48828125 C72.76697367 172.43818171 71.48311974 174.38805166 70.19921875 176.33789062 C69.57666199 177.28659027 68.95410522 178.23528992 68.31268311 179.21273804 C67.07967575 181.0776763 65.83408144 182.9343591 64.57550049 184.78213501 C60.83385965 190.30053445 60.83385965 190.30053445 57.99902344 196.30810547 C56.27908303 200.25930416 55.33269239 201.96190979 51.67578125 204.30078125 C42.35469456 206.24966212 32.62150741 205.42015421 23.17578125 205.05078125 C20.51444354 204.98376216 17.85318461 204.93581697 15.19140625 204.88671875 C8.68335878 204.75475271 2.18016903 204.55425121 -4.32421875 204.30078125 C-3.63109907 201.33225095 -2.77247364 199.10405719 -1.171875 196.5 C-0.729646 195.7769165 -0.28741699 195.05383301 0.16821289 194.30883789 C0.64508545 193.5430542 1.12195801 192.77727051 1.61328125 191.98828125 C2.10111084 191.19736084 2.58894043 190.40644043 3.09155273 189.59155273 C7.77702319 182.04236142 12.68717396 174.65189924 17.67578125 167.30078125 C18.33578125 166.31078125 18.99578125 165.32078125 19.67578125 164.30078125 C18.8257251 164.32172852 17.97566895 164.34267578 17.09985352 164.36425781 C-11.44688842 164.97471802 -36.89247804 162.70764397 -59.02441406 142.12011719 C-74.12905034 127.434261 -82.18096042 108.38179169 -82.66015625 87.4375 C-82.68507293 85.33157768 -82.69530754 83.22642951 -82.69482422 81.12036133 C-82.69919327 79.00064352 -82.7356489 76.88302368 -82.7734375 74.76367188 C-82.93910327 54.92390182 -76.01835674 37.8338394 -62.32421875 23.30078125 C-45.74624481 7.10266269 -22.77355529 -0.01932197 0 0 Z " fill="#AA825A" transform="translate(620.32421875,419.69921875)"/>
<path d="M0 0 C15.84 0 31.68 0 48 0 C57.875 19.3125 57.875 19.3125 60.92138672 25.2746582 C65.65637645 34.53179522 70.43825562 43.76123036 75.29570007 52.95469666 C79.5575921 61.03258574 83.71807841 69.16144574 87.87072754 77.29589844 C90.15979387 81.77938721 92.45292464 86.26079613 94.74609375 90.7421875 C95.19977325 91.62888123 95.65345276 92.51557495 96.12088013 93.42913818 C100.56394704 102.1089792 105.0403242 110.77127137 109.52685547 119.42871094 C112.80919967 125.76312253 116.08430538 132.10109828 119.34765625 138.4453125 C119.71629288 139.16191544 120.0849295 139.87851837 120.46473694 140.61683655 C121.21001 142.06564917 121.95527469 143.51446611 122.70053101 144.96328735 C123.06748077 145.67665253 123.43443054 146.3900177 123.8125 147.125 C124.17598541 147.83167816 124.53947083 148.53835632 124.91397095 149.26644897 C129.04889043 157.3031206 133.20543166 165.32641281 137.4375 173.3125 C140.90248187 179.86123463 144.29066785 186.44623824 147.625 193.0625 C148.06384521 193.92721924 148.50269043 194.79193848 148.95483398 195.68286133 C149.5534021 196.87818481 149.5534021 196.87818481 150.1640625 198.09765625 C150.51936035 198.80414307 150.8746582 199.51062988 151.24072266 200.23852539 C152 202 152 202 152 204 C133.85 204 115.7 204 97 204 C89.0625 188.0625 89.0625 188.0625 86.55883789 183.02758789 C85.90526942 181.71753147 85.25155248 180.40754911 84.59765625 179.09765625 C84.25730347 178.41183472 83.91695068 177.72601318 83.56628418 177.01940918 C82.0995048 173.79656628 82.0995048 173.79656628 80 171 C77.23143133 170.87481177 74.48658874 170.81391795 71.71655273 170.79467773 C70.84833893 170.78477814 69.98012512 170.77487854 69.08560181 170.76467896 C66.20162733 170.73296632 63.31763635 170.70826812 60.43359375 170.68359375 C58.43961649 170.66303264 56.44564368 170.6420364 54.45167542 170.62062073 C49.19259224 170.56531293 43.93346917 170.5159422 38.67431641 170.46777344 C33.31213818 170.41762182 27.95001819 170.36190274 22.58789062 170.30664062 C12.05864345 170.19895262 1.5293458 170.09753144 -9 170 C-8.25696809 166.85947379 -7.23982449 164.16463925 -5.84765625 161.24609375 C-5.40526611 160.31740479 -4.96287598 159.38871582 -4.50708008 158.43188477 C-4.03036865 157.44373779 -3.55365723 156.45559082 -3.0625 155.4375 C-2.57612061 154.42421631 -2.08974121 153.41093262 -1.58862305 152.36694336 C3.04409807 142.7832683 7.97962095 133.38592605 13 124 C26.86 124 40.72 124 55 124 C50.9211261 114.12951926 50.9211261 114.12951926 46.1875 104.75 C45.48916045 103.46838633 44.79260207 102.18580081 44.09765625 100.90234375 C43.57389404 99.93530518 43.57389404 99.93530518 43.03955078 98.94873047 C40.28518886 93.78543388 37.72758562 88.51911758 35.12988281 83.27587891 C32.93032568 78.84539671 30.71352244 74.42351641 28.5 70 C27.63535417 68.27086458 26.77076539 66.54170063 25.90625 64.8125 C25.53822266 64.07644531 25.17019531 63.34039062 24.79101562 62.58203125 C24.52998047 62.05996094 24.26894531 61.53789062 24 61 C18.38620548 69.79576308 13.85579156 79.09268348 9.25 88.4375 C4.22103978 98.6198461 -0.88151121 108.74959286 -6.19567871 118.78648376 C-10.5185721 126.95691714 -14.72867525 135.18361706 -18.93115234 143.41647339 C-21.20667176 147.87405037 -23.48588946 152.32973435 -25.765625 156.78515625 C-26.2145813 157.66261002 -26.6635376 158.54006378 -27.12609863 159.44410706 C-31.59978761 168.18165921 -36.11398853 176.89786164 -40.64941406 185.60351562 C-41.15698242 186.57869141 -41.66455078 187.55386719 -42.1875 188.55859375 C-42.61417969 189.37642334 -43.04085937 190.19425293 -43.48046875 191.03686523 C-45.68752843 195.34070253 -47.83694069 199.67388138 -50 204 C-68.15 204 -86.3 204 -105 204 C-103.6967615 200.09028449 -102.64860853 197.06135478 -100.77734375 193.54296875 C-100.32987793 192.69444336 -99.88241211 191.84591797 -99.42138672 190.97167969 C-98.9317041 190.05290039 -98.44202148 189.13412109 -97.9375 188.1875 C-96.85447561 186.13463822 -95.77250885 184.08121825 -94.69140625 182.02734375 C-94.10246582 180.90956543 -93.51352539 179.79178711 -92.90673828 178.64013672 C-89.7260717 172.58274176 -86.60927573 166.49218184 -83.48303223 160.40658569 C-77.83022876 149.40441916 -72.14749251 138.42021909 -66.3671875 127.484375 C-59.28066696 114.07679774 -52.3093105 100.60854718 -45.34896851 87.13516235 C-36.87437472 70.73218313 -28.29151166 54.39406329 -19.5625 38.125 C-14.88752863 29.41117584 -10.22661115 20.69035512 -5.625 11.9375 C-5.16681885 11.06947754 -4.7086377 10.20145508 -4.23657227 9.30712891 C-3.61286743 8.11676025 -3.61286743 8.11676025 -2.9765625 6.90234375 C-2.61643066 6.21648193 -2.25629883 5.53062012 -1.88525391 4.82397461 C-0.87672977 2.84641663 -0.87672977 2.84641663 0 0 Z " fill="#A17751" transform="translate(418,420)"/>
<path d="M0 0 C0.95174103 -0.00960754 1.90348206 -0.01921509 2.88406372 -0.02911377 C3.91216156 -0.03336365 4.9402594 -0.03761353 5.99951172 -0.04199219 C7.59253616 -0.0505423 7.59253616 -0.0505423 9.21774292 -0.05926514 C11.46888228 -0.06871772 13.72003549 -0.07525014 15.97119141 -0.07910156 C19.39494454 -0.08877045 22.81808794 -0.11977677 26.24169922 -0.15136719 C28.43179983 -0.15790115 30.62190473 -0.16315008 32.81201172 -0.16699219 C34.3359404 -0.18551239 34.3359404 -0.18551239 35.89065552 -0.20440674 C44.84450768 -0.17672294 52.36187652 1.64029394 59.44482422 7.27832031 C66.87460356 14.80175233 68.51676337 22.60346258 68.61669922 32.72363281 C68.66020508 34.1515918 68.66020508 34.1515918 68.70458984 35.60839844 C68.78553741 44.75547396 66.4135452 52.83761591 60.06982422 59.62988281 C51.91312833 66.70383146 42.79945051 68.47107649 32.34716797 68.49707031 C31.40416336 68.50372711 30.46115875 68.51038391 29.48957825 68.51724243 C27.50194232 68.52732825 25.51427281 68.53206072 23.52661133 68.53173828 C20.51114132 68.53610466 17.49714458 68.57244915 14.48193359 68.61035156 C12.54118333 68.61622221 10.6004262 68.62018994 8.65966797 68.62207031 C7.77079391 68.63644135 6.88191986 68.65081238 5.96611023 68.6656189 C-3.17161032 68.60005321 -11.15628498 65.64948231 -17.87158203 59.35644531 C-26.63245944 48.81337657 -27.88296266 36.3209485 -26.69580078 23.16113281 C-25.01956357 15.87314492 -21.52996268 9.77254116 -15.25830078 5.50097656 C-10.13481901 2.3509289 -6.10583415 0.04982915 0 0 Z " fill="#01080A" transform="translate(614.69580078125,468.8388671875)"/>
<path d="M0 0 C15.84 0 31.68 0 48 0 C57.875 19.3125 57.875 19.3125 60.92138672 25.2746582 C65.65637645 34.53179522 70.43825562 43.76123036 75.29570007 52.95469666 C79.5575921 61.03258574 83.71807841 69.16144574 87.87072754 77.29589844 C90.15979387 81.77938721 92.45292464 86.26079613 94.74609375 90.7421875 C95.19977325 91.62888123 95.65345276 92.51557495 96.12088013 93.42913818 C100.56394704 102.1089792 105.0403242 110.77127137 109.52685547 119.42871094 C112.80919967 125.76312253 116.08430538 132.10109828 119.34765625 138.4453125 C119.71629288 139.16191544 120.0849295 139.87851837 120.46473694 140.61683655 C121.21001 142.06564917 121.95527469 143.51446611 122.70053101 144.96328735 C123.06748077 145.67665253 123.43443054 146.3900177 123.8125 147.125 C124.17598541 147.83167816 124.53947083 148.53835632 124.91397095 149.26644897 C129.04889043 157.3031206 133.20543166 165.32641281 137.4375 173.3125 C140.90248187 179.86123463 144.29066785 186.44623824 147.625 193.0625 C148.06384521 193.92721924 148.50269043 194.79193848 148.95483398 195.68286133 C149.5534021 196.87818481 149.5534021 196.87818481 150.1640625 198.09765625 C150.51936035 198.80414307 150.8746582 199.51062988 151.24072266 200.23852539 C152 202 152 202 152 204 C133.85 204 115.7 204 97 204 C89.0625 188.0625 89.0625 188.0625 86.55883789 183.02758789 C85.90526942 181.71753147 85.25155248 180.40754911 84.59765625 179.09765625 C84.25730347 178.41183472 83.91695068 177.72601318 83.56628418 177.01940918 C82.0995048 173.79656628 82.0995048 173.79656628 80 171 C77.23143133 170.87481177 74.48658874 170.81391795 71.71655273 170.79467773 C70.84833893 170.78477814 69.98012512 170.77487854 69.08560181 170.76467896 C66.20162733 170.73296632 63.31763635 170.70826812 60.43359375 170.68359375 C58.43961649 170.66303264 56.44564368 170.6420364 54.45167542 170.62062073 C49.19259224 170.56531293 43.93346917 170.5159422 38.67431641 170.46777344 C33.31213818 170.41762182 27.95001819 170.36190274 22.58789062 170.30664062 C12.05864345 170.19895262 1.5293458 170.09753144 -9 170 C-8.25696809 166.85947379 -7.23982449 164.16463925 -5.84765625 161.24609375 C-5.40526611 160.31740479 -4.96287598 159.38871582 -4.50708008 158.43188477 C-4.03036865 157.44373779 -3.55365723 156.45559082 -3.0625 155.4375 C-2.57612061 154.42421631 -2.08974121 153.41093262 -1.58862305 152.36694336 C3.04409807 142.7832683 7.97962095 133.38592605 13 124 C26.86 124 40.72 124 55 124 C50.9211261 114.12951926 50.9211261 114.12951926 46.1875 104.75 C45.48916045 103.46838633 44.79260207 102.18580081 44.09765625 100.90234375 C43.57389404 99.93530518 43.57389404 99.93530518 43.03955078 98.94873047 C40.28518886 93.78543388 37.72758562 88.51911758 35.12988281 83.27587891 C32.93032568 78.84539671 30.71352244 74.42351641 28.5 70 C27.63535417 68.27086458 26.77076539 66.54170063 25.90625 64.8125 C25.53822266 64.07644531 25.17019531 63.34039062 24.79101562 62.58203125 C24.52998047 62.05996094 24.26894531 61.53789062 24 61 C18.38620548 69.79576308 13.85579156 79.09268348 9.25 88.4375 C4.22103978 98.6198461 -0.88151121 108.74959286 -6.19567871 118.78648376 C-10.5185721 126.95691714 -14.72867525 135.18361706 -18.93115234 143.41647339 C-21.20667176 147.87405037 -23.48588946 152.32973435 -25.765625 156.78515625 C-26.2145813 157.66261002 -26.6635376 158.54006378 -27.12609863 159.44410706 C-31.59978761 168.18165921 -36.11398853 176.89786164 -40.64941406 185.60351562 C-41.15698242 186.57869141 -41.66455078 187.55386719 -42.1875 188.55859375 C-42.61417969 189.37642334 -43.04085937 190.19425293 -43.48046875 191.03686523 C-45.68752843 195.34070253 -47.83694069 199.67388138 -50 204 C-68.15 204 -86.3 204 -105 204 C-103.6967615 200.09028449 -102.64860853 197.06135478 -100.77734375 193.54296875 C-100.32987793 192.69444336 -99.88241211 191.84591797 -99.42138672 190.97167969 C-98.9317041 190.05290039 -98.44202148 189.13412109 -97.9375 188.1875 C-96.85447561 186.13463822 -95.77250885 184.08121825 -94.69140625 182.02734375 C-94.10246582 180.90956543 -93.51352539 179.79178711 -92.90673828 178.64013672 C-89.7260717 172.58274176 -86.60927573 166.49218184 -83.48303223 160.40658569 C-77.83022876 149.40441916 -72.14749251 138.42021909 -66.3671875 127.484375 C-59.28066696 114.07679774 -52.3093105 100.60854718 -45.34896851 87.13516235 C-36.87437472 70.73218313 -28.29151166 54.39406329 -19.5625 38.125 C-14.88752863 29.41117584 -10.22661115 20.69035512 -5.625 11.9375 C-5.16681885 11.06947754 -4.7086377 10.20145508 -4.23657227 9.30712891 C-3.61286743 8.11676025 -3.61286743 8.11676025 -2.9765625 6.90234375 C-2.61643066 6.21648193 -2.25629883 5.53062012 -1.88525391 4.82397461 C-0.87672977 2.84641663 -0.87672977 2.84641663 0 0 Z M1 2 C-1.59875 7.259375 -1.59875 7.259375 -4.25 12.625 C-8.37813595 20.92785973 -12.64087417 29.1339517 -17.125 37.25 C-21.39184218 44.97355069 -25.44746643 52.76926344 -29.35644531 60.67944336 C-33.31496424 68.67954366 -37.47800162 76.56424889 -41.65527344 84.45166016 C-44.1213874 89.12509834 -46.55907255 93.81337272 -49 98.5 C-52.58691521 105.38422485 -56.1877225 112.26064344 -59.8125 119.125 C-64.04387935 127.14399257 -68.21368592 135.19449731 -72.375 143.25 C-77.00661704 152.21576946 -81.64469527 161.17799254 -86.3125 170.125 C-86.79219238 171.04531006 -87.27188477 171.96562012 -87.76611328 172.91381836 C-90.14783489 177.47694891 -92.54460739 182.03138802 -94.96484375 186.57421875 C-95.4343042 187.45770996 -95.90376465 188.34120117 -96.38745117 189.25146484 C-97.27329671 190.91649256 -98.16259709 192.57968838 -99.0559082 194.24072266 C-101.21849495 197.91580264 -101.21849495 197.91580264 -102 202 C-85.17 202 -68.34 202 -51 202 C-47.7 195.4 -44.4 188.8 -41 182 C-36 172.46875 -36 172.46875 -33.5 167.74609375 C-30.96244675 162.94357597 -28.47462729 158.11643973 -26 153.28125 C-25.38125 152.07227051 -25.38125 152.07227051 -24.75 150.83886719 C-23.49920774 148.39298202 -22.24940714 145.94659298 -21 143.5 C-15.53303172 132.79456564 -10.02346804 122.11559999 -4.40942383 111.4864502 C-1.52992407 106.02748248 1.27752615 100.53914667 4 95 C8.15899291 86.60847764 12.48085877 78.31157139 16.87109375 70.0390625 C20.42199111 64.29032935 20.42199111 64.29032935 22 58 C25 59 25 59 26.56887817 61.52975464 C27.1276767 62.65543854 27.68647522 63.78112244 28.26220703 64.94091797 C28.57315308 65.56047363 28.88409912 66.1800293 29.20446777 66.81835938 C30.2319162 68.87163881 31.24490919 70.93169902 32.2578125 72.9921875 C32.96776149 74.41887334 33.67853727 75.84514803 34.3901062 77.27102661 C36.26297193 81.03018943 38.12340356 84.79538113 39.98168945 88.56176758 C41.50052597 91.63479257 43.02824822 94.70335547 44.55645943 97.77172661 C46.37669812 101.42699832 48.19275682 105.08433988 50.0078125 108.7421875 C50.52849493 109.79091852 50.52849493 109.79091852 51.0596962 110.86083603 C52.04091214 112.83955024 53.01925983 114.81965323 53.99658203 116.80029297 C54.55378937 117.92756805 55.1109967 119.05484314 55.68508911 120.21627808 C57 123 57 123 58 126 C43.15 126 28.3 126 13 126 C9.720625 132.7753125 9.720625 132.7753125 6.375 139.6875 C5.69872559 141.08315186 5.02245117 142.47880371 4.32568359 143.91674805 C3.77219238 145.06183838 3.21870117 146.20692871 2.6484375 147.38671875 C2.09333496 148.53358154 1.53823242 149.68044434 0.96630859 150.86206055 C-1.73748525 156.55197883 -4.36007745 162.28016782 -7 168 C36.56 168.495 36.56 168.495 81 169 C93 192 93 192 98 202 C114.83 202 131.66 202 149 202 C147.42696961 197.28090883 145.66371222 193.04875412 143.4375 188.64453125 C143.0902034 187.9499884 142.7429068 187.25544556 142.38508606 186.53985596 C141.26097924 184.29523937 140.13078935 182.05375654 139 179.8125 C138.21823016 178.25648577 137.4365738 176.70041453 136.6550293 175.14428711 C131.63980897 165.1748856 126.51956881 155.26796391 121.27832031 145.41552734 C112.47580361 128.78220032 103.94566426 112.00350023 95.375 95.25 C87.04170629 78.96056635 78.63535091 62.71318262 70.1171875 46.51953125 C69.16119628 44.70065854 68.20546347 42.88164999 67.25 41.0625 C66.79447754 40.1952832 66.33895508 39.32806641 65.86962891 38.43457031 C62.50518829 32.0100967 59.24306654 25.54092452 56.046875 19.03125 C53.13655292 13.29947063 50.04766432 7.65994802 47 2 C31.82 2 16.64 2 1 2 Z " fill="#6BCCD5" transform="translate(418,420)"/>
<path d="M0 0 C1.14507523 -0.00428513 2.29015045 -0.00857025 3.46992493 -0.01298523 C5.87927595 -0.01869447 8.2886442 -0.01925413 10.69799805 -0.01489258 C14.33608242 -0.0117423 17.97334447 -0.03520279 21.61132812 -0.06054688 C37.12215487 -0.10423074 52.11831623 0.17080367 66.55078125 6.55078125 C67.25855713 6.8545166 67.96633301 7.15825195 68.69555664 7.47119141 C74.56264823 10.0759517 79.7160072 13.20618367 84.67578125 17.30078125 C85.51496094 17.97882813 86.35414063 18.656875 87.21875 19.35546875 C101.83331738 31.78116749 111.04192696 49.08215729 113.09179688 68.17578125 C113.28093346 72.10185854 113.33345467 75.99536058 113.30078125 79.92578125 C113.29780029 80.61744385 113.29481934 81.30910645 113.29174805 82.02172852 C113.12581658 103.57548287 106.38436436 122.15801988 94.32421875 139.890625 C93.43816556 141.20692852 92.55279175 142.52368954 91.66796875 143.84082031 C91.18956543 144.5521814 90.71116211 145.26354248 90.21826172 145.99645996 C87.33419739 150.30498182 84.48738151 154.63808795 81.63671875 158.96875 C81.02054688 159.9041864 80.404375 160.8396228 79.76953125 161.80340576 C77.86290738 164.69811825 75.9567859 167.59316101 74.05078125 170.48828125 C72.76697367 172.43818171 71.48311974 174.38805166 70.19921875 176.33789062 C69.57666199 177.28659027 68.95410522 178.23528992 68.31268311 179.21273804 C67.07967575 181.0776763 65.83408144 182.9343591 64.57550049 184.78213501 C60.83385965 190.30053445 60.83385965 190.30053445 57.99902344 196.30810547 C56.27908303 200.25930416 55.33269239 201.96190979 51.67578125 204.30078125 C42.35469456 206.24966212 32.62150741 205.42015421 23.17578125 205.05078125 C20.51444354 204.98376216 17.85318461 204.93581697 15.19140625 204.88671875 C8.68335878 204.75475271 2.18016903 204.55425121 -4.32421875 204.30078125 C-3.63109907 201.33225095 -2.77247364 199.10405719 -1.171875 196.5 C-0.729646 195.7769165 -0.28741699 195.05383301 0.16821289 194.30883789 C0.64508545 193.5430542 1.12195801 192.77727051 1.61328125 191.98828125 C2.10111084 191.19736084 2.58894043 190.40644043 3.09155273 189.59155273 C7.77702319 182.04236142 12.68717396 174.65189924 17.67578125 167.30078125 C18.33578125 166.31078125 18.99578125 165.32078125 19.67578125 164.30078125 C18.8257251 164.32172852 17.97566895 164.34267578 17.09985352 164.36425781 C-11.44688842 164.97471802 -36.89247804 162.70764397 -59.02441406 142.12011719 C-74.12905034 127.434261 -82.18096042 108.38179169 -82.66015625 87.4375 C-82.68507293 85.33157768 -82.69530754 83.22642951 -82.69482422 81.12036133 C-82.69919327 79.00064352 -82.7356489 76.88302368 -82.7734375 74.76367188 C-82.93910327 54.92390182 -76.01835674 37.8338394 -62.32421875 23.30078125 C-45.74624481 7.10266269 -22.77355529 -0.01932197 0 0 Z M-32.44921875 7.05078125 C-33.12243164 7.31608643 -33.79564453 7.5813916 -34.48925781 7.85473633 C-46.0651564 12.52239281 -54.55644643 18.54590272 -63.32421875 27.30078125 C-64.236875 28.19603516 -64.236875 28.19603516 -65.16796875 29.109375 C-79.25149457 44.12930546 -81.86867231 64.97982587 -81.60546875 84.625 C-80.85344857 106.56518862 -72.97295862 126.93768981 -56.89453125 142.17578125 C-33.69439509 161.35644093 -7.25098698 163.58101905 21.67578125 163.30078125 C15.95985094 172.78748688 10.21299419 182.22148739 3.93798828 191.35180664 C1.53021466 194.88498552 -0.44685329 198.46436752 -2.32421875 202.30078125 C5.09487544 202.55484995 12.51284501 202.72965796 19.93530273 202.85009766 C22.45851557 202.90031246 24.98143847 202.96850143 27.50366211 203.05517578 C31.13598081 203.17684951 34.76444934 203.23326346 38.3984375 203.27734375 C40.08320946 203.35476303 40.08320946 203.35476303 41.80201721 203.43374634 C47.96952965 203.46215456 47.96952965 203.46215456 52.91371155 200.12431335 C54.70470776 197.5861467 56.2172965 195.04056824 57.67578125 192.30078125 C58.41441406 191.20894531 59.15304687 190.11710938 59.9140625 188.9921875 C60.59855469 187.95964844 61.28304687 186.92710937 61.98828125 185.86328125 C62.84227875 184.57671061 63.69646187 183.29026317 64.55078125 182.00390625 C65.03289062 181.27751953 65.515 180.55113281 66.01171875 179.80273438 C67.95758437 176.87708431 69.91022993 173.95601425 71.86328125 171.03515625 C75.74443631 165.23031464 79.61650224 159.41948832 83.48095703 153.60351562 C84.87381465 151.50756703 86.26787761 149.41241855 87.66357422 147.31835938 C101.42552769 126.63733253 110.83226454 108.05799109 111.02587891 82.84887695 C111.04227434 81.29468643 111.06934128 79.74056597 111.10791016 78.18676758 C111.63883349 56.60588833 104.53638863 39.09156078 89.67578125 23.30078125 C73.66102439 7.87421246 52.8036552 1.95540916 31.02734375 2.03515625 C29.26576431 2.03228607 29.26576431 2.03228607 27.46859741 2.02935791 C24.99957056 2.02800494 22.53053637 2.03163886 20.06152344 2.04003906 C16.31819376 2.05073151 12.57534604 2.04012292 8.83203125 2.02734375 C6.41796771 2.02866588 4.00390446 2.03122937 1.58984375 2.03515625 C-0.06233658 2.02908356 -0.06233658 2.02908356 -1.74789429 2.02288818 C-12.24502356 2.08504662 -22.65114921 3.09823896 -32.44921875 7.05078125 Z " fill="#71D0D7" transform="translate(620.32421875,419.69921875)"/>
<path d="M0 0 C0.66 0 1.32 0 2 0 C2.51046875 1.17755859 2.51046875 1.17755859 3.03125 2.37890625 C8.05320028 13.26425062 13.78827324 18.82155554 25 23 C25 23.66 25 24.32 25 25 C24.21496094 25.3403125 23.42992187 25.680625 22.62109375 26.03125 C11.73574938 31.05320028 6.17844446 36.78827324 2 48 C1.34 48 0.68 48 0 48 C-0.3403125 47.21496094 -0.680625 46.42992187 -1.03125 45.62109375 C-6.05320028 34.73574938 -11.78827324 29.17844446 -23 25 C-23 24.34 -23 23.68 -23 23 C-22.21496094 22.6596875 -21.42992187 22.319375 -20.62109375 21.96875 C-9.73574938 16.94679972 -4.17844446 11.21172676 0 0 Z " fill="#7D7D7D" transform="translate(967,944)"/>
<path d="M0 0 C1.7880249 0.12869263 1.7880249 0.12869263 4 1 C5.69586182 3.52975464 5.69586182 3.52975464 7.39160156 6.94091797 C7.70429993 7.56047363 8.01699829 8.1800293 8.33917236 8.81835938 C9.37007696 10.86974419 10.38050887 12.93049699 11.390625 14.9921875 C12.10130587 16.41899073 12.81305152 17.84526405 13.52581787 19.27102661 C15.01707733 22.26127957 16.4989098 25.25595263 17.97363281 28.25439453 C19.86551548 32.10042229 21.77475944 35.93748783 23.69040298 39.77172661 C25.16062768 42.71687409 26.62439476 45.66519031 28.08592987 48.61465836 C28.78792644 50.03072459 29.49127658 51.44612064 30.19599152 52.86083603 C31.17881796 54.837685 32.15356346 56.81830529 33.12597656 58.80029297 C33.96059418 60.4912056 33.96059418 60.4912056 34.81207275 62.21627808 C36 65 36 65 36 68 C21.15 68 6.3 68 -9 68 C-9.99 70.97 -10.98 73.94 -12 77 C-17.28 87.56 -22.56 98.12 -28 109 C0.71 109.33 29.42 109.66 59 110 C59 110.33 59 110.66 59 111 C29.63 111 0.26 111 -30 111 C-28.8749307 104.24958417 -28.8749307 104.24958417 -27.15820312 100.84643555 C-26.78111206 100.08932785 -26.404021 99.33222015 -26.01550293 98.5521698 C-25.40454773 97.35652153 -25.40454773 97.35652153 -24.78125 96.13671875 C-24.15434265 94.88783623 -24.15434265 94.88783623 -23.51477051 93.61372375 C-22.63417463 91.86291987 -21.74977929 90.11402242 -20.86181641 88.36694336 C-19.49760997 85.6827975 -18.14430087 82.99338133 -16.79296875 80.30273438 C-15.93551781 78.60124892 -15.07746598 76.90006611 -14.21875 75.19921875 C-13.81144653 74.39199875 -13.40414307 73.58477875 -12.98449707 72.75309753 C-10.11833979 67.11833979 -10.11833979 67.11833979 -9 66 C-5.89748799 65.91125865 -2.8173188 65.88481545 0.28515625 65.90234375 C1.21597519 65.9037587 2.14679413 65.90517365 3.1058197 65.90663147 C6.09141191 65.91224828 9.07693029 65.9248036 12.0625 65.9375 C14.08137913 65.94251284 16.10025943 65.94707612 18.11914062 65.95117188 C23.07945572 65.96222317 28.03971532 65.97949905 33 66 C30.33160992 59.41014223 27.62587068 52.97526059 24.1875 46.75 C23.48916045 45.46838633 22.79260207 44.18580081 22.09765625 42.90234375 C21.74848145 42.25765137 21.39930664 41.61295898 21.03955078 40.94873047 C18.28518886 35.78543388 15.72758562 30.51911758 13.12988281 25.27587891 C10.93032568 20.84539671 8.71352244 16.42351641 6.5 12 C5.63535417 10.27086458 4.77076539 8.54170063 3.90625 6.8125 C3.53822266 6.07644531 3.17019531 5.34039062 2.79101562 4.58203125 C2.52998047 4.05996094 2.26894531 3.53789062 2 3 C-3.13795314 11.05020889 -7.35453978 19.50125 -11.57315063 28.05282593 C-13.56911168 32.09728284 -15.57953388 36.13453576 -17.58984375 40.171875 C-17.97992111 40.95576096 -18.36999847 41.73964691 -18.77189636 42.54728699 C-22.26096903 49.54758265 -25.86562771 56.4800491 -29.55078125 63.37890625 C-31.54554145 67.11707162 -33.48564832 70.88153573 -35.41796875 74.65234375 C-36.30778442 76.3835144 -36.30778442 76.3835144 -37.21557617 78.1496582 C-38.38561913 80.42843253 -39.55130492 82.70945049 -40.7121582 84.99291992 C-41.50432739 86.531698 -41.50432739 86.531698 -42.3125 88.1015625 C-42.78300781 89.02275879 -43.25351562 89.94395508 -43.73828125 90.89306641 C-45 93 -45 93 -47 94 C-45.3307349 88.26190121 -42.69123856 83.12102931 -40 77.8125 C-39.51088135 76.84070801 -39.0217627 75.86891602 -38.51782227 74.86767578 C-34.9902371 67.88532127 -31.36917528 60.95551945 -27.70117188 54.04614258 C-24.28056556 47.58522247 -21.01162704 41.05501452 -17.76293945 34.50634766 C-14.40782537 27.76439889 -10.93168144 21.09155647 -7.3984375 14.44140625 C-4.86030474 9.66125621 -2.4028981 4.84968475 0 0 Z " fill="#75CACF" transform="translate(440,478)"/>
<path d="M0 0 C0.98502502 -0.0066568 1.97005005 -0.0133136 2.98492432 -0.02017212 C5.06252181 -0.03026193 7.14015147 -0.03499028 9.21777344 -0.03466797 C12.36709115 -0.0390299 15.51499326 -0.07535846 18.6640625 -0.11328125 C32.03523561 -0.18771347 43.80615859 0.2358222 54.19140625 9.7578125 C61.69369082 17.57657062 63.18093015 26.76269548 62.97045898 37.20092773 C62.53608708 48.49839644 60.04929811 56.02190724 51.7890625 64.16015625 C41.2873954 72.73867856 29.52218014 73.00155152 16.58056641 72.91235352 C13.77775949 72.89849749 10.97830734 72.932632 8.17578125 72.97070312 C-5.3621416 73.02945046 -17.21522599 71.63183654 -27.41796875 61.7109375 C-32.40385612 55.61150185 -36.07560759 48.28142506 -36.359375 40.3359375 C-36.40835938 39.43230469 -36.45734375 38.52867187 -36.5078125 37.59765625 C-36.86321545 26.8398824 -34.62420418 17.5430667 -27.359375 9.3359375 C-18.71923571 1.86492597 -11.13027098 0.02647839 0 0 Z M-28.6953125 13.15234375 C-33.03629472 19.76418661 -34.73405424 25.63410131 -34.671875 33.5859375 C-34.66623535 34.33810547 -34.6605957 35.09027344 -34.65478516 35.86523438 C-34.43976087 45.75209342 -31.83101819 53.71020896 -25.359375 61.3359375 C-17.6976147 68.60112636 -9.61540237 70.80474455 0.6953125 70.734375 C2.10769699 70.73868027 2.10769699 70.73868027 3.5486145 70.74307251 C5.53029994 70.74510379 7.51200585 70.73963984 9.49365234 70.72705078 C12.50013898 70.71102007 15.50527407 70.7269131 18.51171875 70.74609375 C20.44791959 70.74411045 22.3841196 70.74026498 24.3203125 70.734375 C25.2060495 70.74044769 26.0917865 70.74652039 27.00436401 70.7527771 C37.66350487 70.63479314 45.89951104 67.72806682 53.640625 60.3359375 C59.8034407 52.71350755 61.20242724 44.97116341 61.140625 35.4609375 C61.13708008 34.48584229 61.13353516 33.51074707 61.12988281 32.50610352 C60.96637795 25.44873591 60.01086875 20.06159018 55.640625 14.3359375 C55.0425 13.4078125 54.444375 12.4796875 53.828125 11.5234375 C45.68413834 3.37945084 36.65364369 2.02392065 25.58984375 1.96484375 C24.0088665 1.95130104 24.0088665 1.95130104 22.39595032 1.93748474 C20.17293113 1.92302332 17.94986978 1.91410576 15.72680664 1.91040039 C12.34903298 1.89851109 8.97309161 1.84928834 5.59570312 1.79882812 C3.42709217 1.78936162 1.25847009 1.78212767 -0.91015625 1.77734375 C-1.9083992 1.75781143 -2.90664215 1.73827911 -3.93513489 1.71815491 C-13.28555241 1.77749626 -22.96698794 5.36383229 -28.6953125 13.15234375 Z " fill="#7FD1D4" transform="translate(622.359375,466.6640625)"/>
<path d="M0 0 C1.54398972 -0.01429802 1.54398972 -0.01429802 3.11917114 -0.02888489 C4.23983978 -0.02797348 5.36050842 -0.02706207 6.51513672 -0.02612305 C7.67294647 -0.03040817 8.83075623 -0.0346933 10.02365112 -0.03910828 C12.48678941 -0.04486583 14.94994472 -0.04534142 17.41308594 -0.04101562 C21.13100587 -0.03789536 24.84809889 -0.06115791 28.56591797 -0.08666992 C44.22797993 -0.13006756 59.36965501 0.08159718 73.94482422 6.5246582 C75.00648804 6.98026123 75.00648804 6.98026123 76.08959961 7.44506836 C81.9566912 10.04982865 87.11005016 13.18006062 92.06982422 17.2746582 C92.90900391 17.95270508 93.74818359 18.63075195 94.61279297 19.3293457 C109.22736035 31.75504445 118.43596993 49.05603424 120.48583984 68.1496582 C120.67497643 72.07573549 120.72749764 75.96923753 120.69482422 79.8996582 C120.69184326 80.5913208 120.6888623 81.2829834 120.68579102 81.99560547 C120.51974021 103.56486118 114.0402088 124.5101967 100.06982422 141.2746582 C100.06982422 137.86293155 101.07835124 136.51705584 102.91552734 133.74291992 C113.14033435 118.25389647 117.27916827 101.14925399 117.41992188 82.82275391 C117.43631731 81.26856338 117.46338425 79.71444292 117.50195312 78.16064453 C118.01636483 57.25092716 111.53938039 39.73398858 97.06982422 24.2746582 C80.61228661 8.43922683 59.56652048 3.0727506 37.30810547 2.8605957 C36.03629929 2.84122955 34.7644931 2.8218634 33.45414734 2.8019104 C30.11208414 2.75264052 26.77012011 2.71121614 23.42791748 2.67376709 C20.00181691 2.63338786 16.5758739 2.58245243 13.14990234 2.5324707 C6.45664522 2.43692685 -0.23668197 2.35174332 -6.93017578 2.2746582 C-4.3962121 -0.25930548 -3.5109814 0.01784293 0 0 Z " fill="#78D0D3" transform="translate(612.93017578125,419.725341796875)"/>
<path d="M0 0 C0.33 0.66 0.66 1.32 1 2 C30.7 2 60.4 2 91 2 C107 32.66666667 107 32.66666667 107 35 C123.83 35 140.66 35 158 35 C156.02 31.04 154.04 27.08 152 23 C152.33 22.01 152.66 21.02 153 20 C154.33838733 22.45570175 155.67086232 24.91429916 157 27.375 C157.3815625 28.07367187 157.763125 28.77234375 158.15625 29.4921875 C161 34.7734375 161 34.7734375 161 37 C142.85 37 124.7 37 106 37 C98.0625 21.0625 98.0625 21.0625 95.55883789 16.02758789 C94.90526942 14.71753147 94.25155248 13.40754911 93.59765625 12.09765625 C93.25730347 11.41183472 92.91695068 10.72601318 92.56628418 10.01940918 C91.0995048 6.79656628 91.0995048 6.79656628 89 4 C86.23143133 3.87481177 83.48658874 3.81391795 80.71655273 3.79467773 C79.84833893 3.78477814 78.98012512 3.77487854 78.08560181 3.76467896 C75.20162733 3.73296632 72.31763635 3.70826812 69.43359375 3.68359375 C67.43961649 3.66303264 65.44564368 3.6420364 63.45167542 3.62062073 C58.19259224 3.56531293 52.93346917 3.5159422 47.67431641 3.46777344 C42.31213818 3.41762182 36.95001819 3.36190274 31.58789062 3.30664062 C21.05864345 3.19895262 10.5293458 3.09753144 0 3 C0 2.01 0 1.02 0 0 Z " fill="#61C6CD" transform="translate(409,587)"/>
<path d="M0 0 C0.99 0.495 0.99 0.495 2 1 C1.51046089 1.7326432 1.51046089 1.7326432 1.0110321 2.48008728 C-2.4470027 7.6559059 -5.90328588 12.83289117 -9.35864258 18.01049805 C-10.64108924 19.93168422 -11.92395317 21.85259194 -13.20727539 23.77319336 C-20.52158426 34.72034238 -27.7908322 45.69175805 -34.91479492 56.76391602 C-36.26080651 58.8528264 -37.62156234 60.9323435 -39 63 C-41.3664856 63.36076355 -41.3664856 63.36076355 -44.36767578 63.34057617 C-45.48868683 63.34034958 -46.60969788 63.34012299 -47.76467896 63.33988953 C-48.97928802 63.32440567 -50.19389709 63.30892181 -51.4453125 63.29296875 C-52.68546112 63.28872391 -53.92560974 63.28447906 -55.20333862 63.28010559 C-58.50135463 63.26613216 -61.7989335 63.23917361 -65.09680176 63.20599365 C-68.46161542 63.17531238 -71.82649304 63.16160446 -75.19140625 63.14648438 C-81.79444271 63.1133473 -88.39718558 63.06309697 -95 63 C-95 62.34 -95 61.68 -95 61 C-94.3287207 61.01411926 -93.65744141 61.02823853 -92.96582031 61.04278564 C-85.95696571 61.17833481 -78.951056 61.22929985 -71.94091797 61.23193359 C-69.32777459 61.24391306 -66.71463624 61.27721113 -64.10205078 61.33251953 C-49.51645943 62.5591879 -49.51645943 62.5591879 -36.64941406 57.52099609 C-34.57309873 54.4065231 -33.26362125 51.51299939 -32 48 C-30.64648438 45.81054688 -30.64648438 45.81054688 -29.296875 43.9453125 C-28.8834082 43.3251123 -28.46994141 42.70491211 -28.04394531 42.06591797 C-20.72390747 31.08586121 -20.72390747 31.08586121 -13.40386963 20.10580444 C-12.94736023 19.42104034 -12.49085083 18.73627625 -12.02050781 18.03076172 C-11.33438416 17.00157623 -11.33438416 17.00157623 -10.63439941 15.95159912 C-9.9491217 14.92368256 -9.9491217 14.92368256 -9.25 13.875 C-8.7921814 13.18827209 -8.33436279 12.50154419 -7.8626709 11.79400635 C-7.189599 10.7843985 -7.189599 10.7843985 -6.50292969 9.75439453 C-5.85825745 8.78738617 -5.85825745 8.78738617 -5.20056152 7.80084229 C-4.58308044 6.87462067 -4.58308044 6.87462067 -3.953125 5.9296875 C-2.63541667 3.953125 -1.31770833 1.9765625 0 0 Z " fill="#6AC4C8" transform="translate(711,561)"/>
<path d="M0 0 C1.89135742 0.33642578 1.89135742 0.33642578 4 1 C5.73828125 3.6171875 5.73828125 3.6171875 7.3125 6.875 C7.84488281 7.94492187 8.37726563 9.01484375 8.92578125 10.1171875 C10 13 10 13 9 16 C6.69 11.71 4.38 7.42 2 3 C-3.08103293 11.09890758 -7.34879435 19.48960339 -11.57315063 28.05282593 C-13.56911168 32.09728284 -15.57953388 36.13453576 -17.58984375 40.171875 C-17.97992111 40.95576096 -18.36999847 41.73964691 -18.77189636 42.54728699 C-22.26096903 49.54758265 -25.86562771 56.4800491 -29.55078125 63.37890625 C-31.54554145 67.11707162 -33.48564832 70.88153573 -35.41796875 74.65234375 C-36.30778442 76.3835144 -36.30778442 76.3835144 -37.21557617 78.1496582 C-38.38561913 80.42843253 -39.55130492 82.70945049 -40.7121582 84.99291992 C-41.50432739 86.531698 -41.50432739 86.531698 -42.3125 88.1015625 C-42.78300781 89.02275879 -43.25351562 89.94395508 -43.73828125 90.89306641 C-45 93 -45 93 -47 94 C-45.3307349 88.26190121 -42.69123856 83.12102931 -40 77.8125 C-39.51088135 76.84070801 -39.0217627 75.86891602 -38.51782227 74.86767578 C-34.9902371 67.88532127 -31.36917528 60.95551945 -27.70117188 54.04614258 C-24.28056556 47.58522247 -21.01162704 41.05501452 -17.76293945 34.50634766 C-14.40782537 27.76439889 -10.93168144 21.09155647 -7.3984375 14.44140625 C-4.86030474 9.66125621 -2.4028981 4.84968475 0 0 Z " fill="#7AD2D4" transform="translate(440,478)"/>
<path d="M0 0 C0 0.33 0 0.66 0 1 C-0.7528125 1.07476562 -1.505625 1.14953125 -2.28125 1.2265625 C-23.64740624 3.87140223 -42.28693817 13.86202956 -55.9375 30.5625 C-63.02501295 40.29922896 -67.37519531 51.81006532 -68.625 63.8125 C-68.74875 64.864375 -68.8725 65.91625 -69 67 C-69.99 67.495 -69.99 67.495 -71 68 C-72.35861431 51.35697473 -63.592742 35.62096782 -53.16796875 23.30078125 C-40.8768017 10.25664181 -18.53351752 -3.27062074 0 0 Z " fill="#69CBD6" transform="translate(609,422)"/>
<path d="M0 0 C0.33 0 0.66 0 1 0 C1.02578125 1.21171875 1.0515625 2.4234375 1.078125 3.671875 C1.85604578 29.41586654 6.85273862 53.11225163 26.2734375 71.4140625 C27.12808594 72.19910156 27.12808594 72.19910156 28 73 C29.00453508 73.99544426 30.00611604 74.99392114 31 76 C27.34922716 76 26.41743204 74.85020184 23.87548828 72.39501953 C23.35970215 71.87278809 22.84391602 71.35055664 22.3125 70.8125 C21.77866699 70.27222168 21.24483398 69.73194336 20.69482422 69.17529297 C5.3325232 53.10944577 -0.45855068 33.48210987 -0.125 11.75 C-0.11597656 10.61175781 -0.10695313 9.47351563 -0.09765625 8.30078125 C-0.0744028 5.53362119 -0.04172868 2.7669324 0 0 Z " fill="#7BDDDF" transform="translate(538,490)"/>
<path d="M0 0 C6.61590524 -0.15338104 13.23134455 -0.25772529 19.84863281 -0.32958984 C22.09490085 -0.35957878 24.34105362 -0.40038448 26.58691406 -0.45263672 C52.39759839 -1.0376789 52.39759839 -1.0376789 62.34667969 8.17236328 C64.17648603 10.04807386 65.73254739 11.70488312 67 14 C66.67 14.99 66.34 15.98 66 17 C65.6596875 16.48050781 65.319375 15.96101563 64.96875 15.42578125 C59.79437114 7.98073082 53.95950699 3.8353835 45 2 C41.49213067 1.68294515 37.99336526 1.62882806 34.47265625 1.5859375 C33.48373886 1.56657135 32.49482147 1.5472052 31.47593689 1.5272522 C28.33821049 1.46779378 25.20044672 1.42120644 22.0625 1.375 C19.92641689 1.33678916 17.79034867 1.29773564 15.65429688 1.2578125 C10.43633081 1.16212028 5.21827395 1.07697545 0 1 C0 0.67 0 0.34 0 0 Z " fill="#58B8C1" transform="translate(614,468)"/>
<path d="M0 0 C1.89135742 0.33642578 1.89135742 0.33642578 4 1 C5.73828125 3.6171875 5.73828125 3.6171875 7.3125 6.875 C8.11107422 8.47988281 8.11107422 8.47988281 8.92578125 10.1171875 C10 13 10 13 9 16 C5.535 9.565 5.535 9.565 2 3 C-3.0208345 11.15885606 -7.54708966 19.52364783 -12 28 C-12.33 27.34 -12.66 26.68 -13 26 C-11.92016602 23.38623047 -11.92016602 23.38623047 -10.25390625 20.1171875 C-9.66416016 18.95058594 -9.07441406 17.78398437 -8.46679688 16.58203125 C-7.83220174 15.3462666 -7.19743385 14.11059065 -6.5625 12.875 C-5.93091232 11.63188018 -5.30004346 10.38839486 -4.66992188 9.14453125 C-3.12033581 6.09267473 -1.5634264 3.04478318 0 0 Z " fill="#7DDBDF" transform="translate(440,478)"/>
<path d="M0 0 C0 0.33 0 0.66 0 1 C-0.83402344 1.10957031 -1.66804687 1.21914063 -2.52734375 1.33203125 C-8.69143234 2.20051109 -14.39947784 3.20432042 -20.1953125 5.51171875 C-22 6 -22 6 -25 5 C-17.49491122 0.62203155 -8.5759345 -2.14398363 0 0 Z " fill="#79D1D9" transform="translate(609,422)"/>
<path d="M0 0 C0.66 0.33 1.32 0.66 2 1 C0.23669281 2.5088401 -1.53590397 4.0068298 -3.3125 5.5 C-4.29863281 6.3353125 -5.28476562 7.170625 -6.30078125 8.03125 C-9 10 -9 10 -12 10 C-10.56458334 8.70601853 -9.12658648 7.41489889 -7.6875 6.125 C-6.88699219 5.40570313 -6.08648438 4.68640625 -5.26171875 3.9453125 C-3 2 -3 2 0 0 Z M-14 12 C-13.67 12.99 -13.34 13.98 -13 15 C-14.375 16.5 -14.375 16.5 -16 18 C-16.66 18 -17.32 18 -18 18 C-18.33 18.99 -18.66 19.98 -19 21 C-19.66 20.67 -20.32 20.34 -21 20 C-18.69 17.36 -16.38 14.72 -14 12 Z " fill="#B89871" transform="translate(572,434)"/>
<path d="M0 0 C0.33 0 0.66 0 1 0 C1.02505615 0.70495605 1.0501123 1.40991211 1.07592773 2.13623047 C1.19318042 5.38261447 1.3153115 8.62879817 1.4375 11.875 C1.47681641 12.98359375 1.51613281 14.0921875 1.55664062 15.234375 C1.80984219 21.8565699 2.24101949 28.41596045 3 35 C1 34 1 34 -0.1484375 30.78125 C-1.52863421 24.73107266 -0.96280798 18.64810516 -0.625 12.5 C-0.56828125 11.29601562 -0.5115625 10.09203125 -0.453125 8.8515625 C-0.31259151 5.90035929 -0.16127548 2.95013017 0 0 Z " fill="#155357" transform="translate(537,490)"/>
<path d="M0 0 C1.50377906 2.36695909 2.09467087 3.48929845 1.57421875 6.296875 C1.28160156 7.10640625 0.98898437 7.9159375 0.6875 8.75 C-0.43202526 12.06438401 -1.23602139 15.0779687 -1.5625 18.5625 C-1.7790625 20.2640625 -1.7790625 20.2640625 -2 22 C-2.66 22.33 -3.32 22.66 -4 23 C-4.65720455 14.94924431 -2.22928846 7.64327471 0 0 Z " fill="#66C2C6" transform="translate(542,467)"/>
<path d="M0 0 C0.93779297 0.09667969 1.87558594 0.19335938 2.84179688 0.29296875 C3.81826172 0.40511719 4.79472656 0.51726563 5.80078125 0.6328125 C6.78884766 0.73722656 7.77691406 0.84164062 8.79492188 0.94921875 C11.23565422 1.20862025 13.67475745 1.47852695 16.11328125 1.7578125 C16.11328125 2.0878125 16.11328125 2.4178125 16.11328125 2.7578125 C7.62644492 4.45517977 0.44386089 3.66974881 -7.88671875 1.7578125 C-4.50401388 -0.49732408 -3.86074271 -0.42117193 0 0 Z " fill="#65B2B5" transform="translate(606.88671875,580.2421875)"/>
<path d="M0 0 C4.03321763 1.21934486 7.54269479 2.55954927 11 5 C11 5.66 11 6.32 11 7 C11.94875 7.28875 12.8975 7.5775 13.875 7.875 C17 9 17 9 19 11 C14.66800324 10.40745331 11.56430938 8.83413994 7.8125 6.625 C6.76707031 6.01914062 5.72164062 5.41328125 4.64453125 4.7890625 C2 3 2 3 0 0 Z " fill="#957052" transform="translate(568,564)"/>
<path d="M0 0 C0.33 0.66 0.66 1.32 1 2 C0.67 2.61875 0.34 3.2375 0 3.875 C-1.19532222 6.41505971 -0.92300522 7.41558539 0 10 C-1.98 10 -3.96 10 -6 10 C-5.18957164 8.51969728 -4.37659652 7.04078858 -3.5625 5.5625 C-2.88380859 4.32693359 -2.88380859 4.32693359 -2.19140625 3.06640625 C-1 1 -1 1 0 0 Z " fill="#8E684D" transform="translate(624,612)"/>
<path d="M0 0 C1.5 1.375 1.5 1.375 3 3 C3 3.66 3 4.32 3 5 C2.4225 5.2475 1.845 5.495 1.25 5.75 C-1.3002997 7.16683317 -3.01785701 8.87627537 -5 11 C-3.77472971 6.94718288 -2.30119506 3.55639236 0 0 Z " fill="#0F363F" transform="translate(441,480)"/>
<path d="M0 0 C3.72114571 2.31537955 6.61229661 4.28579473 9 8 C8.67 8.66 8.34 9.32 8 10 C6.65787938 8.90653119 5.32652025 7.7998425 4 6.6875 C3.2575 6.07261719 2.515 5.45773437 1.75 4.82421875 C0 3 0 3 0 0 Z " fill="#102F34" transform="translate(670,474)"/>
<path d="M0 0 C3.78717347 1.48781815 5.77407001 3.61988409 8 7 C7.67 7.99 7.34 8.98 7 10 C5.83043409 8.52312468 4.66441854 7.04343707 3.5 5.5625 C2.8503125 4.73878906 2.200625 3.91507812 1.53125 3.06640625 C0 1 0 1 0 0 Z " fill="#75DDE3" transform="translate(673,475)"/>
<path d="M0 0 C0 0.33 0 0.66 0 1 C-1.43534841 1.2226746 -2.87345525 1.42761906 -4.3125 1.625 C-5.11300781 1.74101562 -5.91351562 1.85703125 -6.73828125 1.9765625 C-9 2 -9 2 -12 0 C-7.74433453 -1.16063604 -4.3164922 -0.76173392 0 0 Z " fill="#74B7BA" transform="translate(609,422)"/>
<path d="M0 0 C1.88391785 3.26545761 2.49287967 6.28111761 3 10 C2.34 10 1.68 10 1 10 C-0.83691257 6.21812119 -1.15837626 4.05431692 0 0 Z " fill="#6DC1C1" transform="translate(541,522)"/>
<path d="M0 0 C0.66 0 1.32 0 2 0 C5.07692308 5.41538462 5.07692308 5.41538462 4.6875 8.375 C4.460625 8.91125 4.23375 9.4475 4 10 C0 3.375 0 3.375 0 0 Z " fill="#84D3DB" transform="translate(478,447)"/>
<path d="M0 0 C3.72114571 2.31537955 6.61229661 4.28579473 9 8 C4.75153925 7.52794881 2.73180712 5.11122478 0 2 C0 1.34 0 0.68 0 0 Z " fill="#C2A379" transform="translate(699,435)"/>
<path d="M0 0 C1 2 1 2 0.44140625 3.9453125 C0.15136719 4.66460938 -0.13867188 5.38390625 -0.4375 6.125 C-0.72496094 6.84945312 -1.01242187 7.57390625 -1.30859375 8.3203125 C-1.53675781 8.87460937 -1.76492188 9.42890625 -2 10 C-2.66 10 -3.32 10 -4 10 C-3.43454163 6.04179141 -2.19097652 3.3340947 0 0 Z " fill="#936846" transform="translate(341,573)"/>
</svg>
