<svg xmlns="http://www.w3.org/2000/svg" viewBox="0 0 256 256" role="img">
  <defs>
    <linearGradient id="coffee" x1="0" x2="1" y1="0" y2="1">
      <stop offset="0%" stop-color="#f5e6d3" />
      <stop offset="55%" stop-color="#c48952" />
      <stop offset="100%" stop-color="#8b5a2b" />
    </linearGradient>
  </defs>
  <rect width="256" height="256" rx="56" fill="#0f0d0b"/>
  <!-- A stylized -->
  <path d="M128 48c-4.4 0-8 2.4-9.8 6.5l-60 136.5c-2.9 6.6 1.8 13.9 9.1 13.9h26.4c4 0 7.6-2.4 9.1-6.1l10.9-25.7h48.6l10.9 25.7c1.5 3.7 5.1 6.1 9.1 6.1h26.4c7.3 0 12-7.3 9.1-13.9l-60-136.5c-1.8-4.1-5.4-6.5-9.8-6.5h-19zM116.9 132.8l11.1-26.2 11.1 26.2h-22.2z" fill="url(#coffee)"/>
  <!-- Integrated 9 loop redesigned -->
  <path d="M176 92c-29.5 0-50.5 19.8-55.2 46.7-.4 2.4-.6 4.9-.7 7.6-.2 5.4.5 10.5 1.9 15.4 6.7 23.5 27.5 39.6 54.1 40.5 13.8.5 25.9-3.5 36.6-11.7 4.3-3.2 4.9-9.4 1.7-13.7l-7.9-10.9c-2.6-3.6-7.3-4.6-11.2-2.4-5.3 3.1-11.5 4.9-17.9 4.9-16.9 0-30.2-12.6-30.2-29.4 0-16.4 12.1-28.6 28.9-28.9 7.5-.2 13.7 2 19.3 6.7 3.4 2.8 8.4 3.1 12.2.8l11.4-6.8c3.8-2.3 5.7-6.7 4.4-10.9C215.2 103.4 197.9 92 176 92z" fill="#ffffff" fill-opacity="0.9"/>
  <!-- Leaf / bean accent integrated inside 9 -->
  <path d="M187.8 148.2c-8 6.6-12.6 14.5-12.6 23.1 0 4.1 1.2 7.6 3.4 10.2 2.2 2.6 5.7 4.2 9.1 3.1 13.1-4 23.3-22 21.5-38.3-.3-2.1-2.9-2.9-4.3-1.2-4.4 5.1-9.7 8.6-16.9 3.1-1-.7-2.3-.6-3.2 0z" fill="#c48952"/>
</svg>
